<svg id="Layer_1" data-name="Layer 1" xmlns="http://www.w3.org/2000/svg" viewBox="0 0 313 313"><defs><style>.cls-1{fill:#ec1c24;}</style></defs><title>isuzu</title><path class="cls-1" d="M15.6,179.74c0,1.76-.79,2.71-2.7,2.71H2.71C.8,182.45,0,181.5,0,179.74v-46.8c0-1.91.8-2.71,2.71-2.71H12.9c1.91,0,2.7.8,2.7,2.71v46.8Z"/><path class="cls-1" d="M29.93,179.74v-6.2c0-1.92,1-2.71,2.71-2.71H77.06a1.35,1.35,0,0,0,1.43-.8,1.28,1.28,0,0,0-1-1.59c-1-.32-36-11.46-37.41-11.94-7.32-2.39-10-7.16-10-12.74,0-7.16,4.78-13.37,16.08-13.37H86.61c1.91,0,2.7,1,2.7,2.71v6.36c0,1.92-.79,2.71-2.7,2.71h-40c-1,0-1.28.16-1.44.8a1.18,1.18,0,0,0,1,1.59c1.27.48,30.57,9.71,36,11.46,8.28,2.71,11.46,6.53,11.46,13.69,0,8.6-5.89,12.74-16.08,12.9H33c-2.23,0-3-.8-3-2.87Z"/><path class="cls-1" d="M118.77,130.39c1.91,0,2.7.8,2.7,2.71v29.61c0,4.93,1.28,7.8,8,8H142c6.69-.16,7.48-3.18,7.48-8V133.1c0-1.91.8-2.71,2.71-2.71h10.35a2.38,2.38,0,0,1,2.71,2.71v32.16c0,8.59-1.44,17-17.83,17.35-5.58.16-12,.16-12,.16s-6.68-.16-12.41-.16c-15.45-.16-17.36-9.07-17.36-17.35V133.1c0-1.91.8-2.71,2.71-2.71Z"/><path class="cls-1" d="M266.51,130.39c1.91,0,2.71.8,2.71,2.71v29.61c0,4.93,1.27,7.8,8,8h12.58c6.68-.16,7.48-3.18,7.48-8V133.1c0-1.91.79-2.71,2.71-2.71h10.34A2.38,2.38,0,0,1,313,133.1v32.16c0,8.59-1.43,17-17.83,17.35-5.57.16-11.94.16-11.94.16s-6.69-.16-12.42-.16c-15.44-.16-17.35-9.07-17.35-17.35V133.1c0-1.91.79-2.71,2.7-2.71Z"/><path class="cls-1" d="M241,179.74c0,2.07-.8,2.71-2.71,2.71H193.75c-10.18-.16-16.08-4.14-16.08-12.9,0-7.16,3.19-11.14,11.47-13.69,5.41-1.75,34.55-11,36-11.46a1.17,1.17,0,0,0,.95-1.59c-.16-.48-.63-.8-1.43-.8h-40c-1.91,0-2.71-.79-2.71-2.7v-6.37c0-1.91.8-2.71,2.71-2.71h40.44c11.14,0,16.08,6.21,16.08,13.37,0,5.74-2.71,10.35-10,12.74-1.44.48-36.46,11.62-37.42,11.94a1.28,1.28,0,0,0-.95,1.59,1.35,1.35,0,0,0,1.43.8h44.42c1.91,0,2.71,1,2.71,2.71l-.32,6.36Z"/></svg>