<svg xmlns="http://www.w3.org/2000/svg" viewBox="0 0 310.48 311.43"><defs><style>.cls-1{fill:#808285;}</style></defs><title>mercury</title><g id="Layer_2" data-name="Layer 2"><g id="Layer_1-2" data-name="Layer 1"><path class="cls-1" d="M45.09,46C14.74,76.36,0,112.82,0,156.15c0,42.5,14.74,78.93,45.09,109.28s67.65,46,110.15,46c43.37,0,79.79-15.61,110.15-46s45.09-66.78,45.09-109.28c0-43.36-14.73-79.79-45.09-110.15S198.61,0,155.24,0C112.74,0,75.45,15.61,45.09,46Zm213.36,6.94C287.07,81.56,301,116.25,301,156.15s-13.88,73.72-42.5,102.34-63.31,43.33-103.21,43.33S80.66,287.11,52,258.49,9.54,196.05,9.54,156.15,23.42,81.56,52,52.94s63.32-42.5,103.21-42.5S229.83,24.32,258.45,52.94Z"/><path class="cls-1" d="M80.66,80.69q-31.23,31.23-31.23,75.46c0,28.62,10.41,53.77,31.23,74.59s46,31.22,74.58,31.22q44.23,0,75.46-31.22c20.81-20.82,31.22-46,31.22-74.59q0-44.24-31.22-75.46T155.24,49.47C126.62,49.47,101.47,59.88,80.66,80.69Zm74.58-26.87a101.83,101.83,0,0,1,52,13.88c15.65,9.53,27.79,21.67,36.5,38.12H121.42c-5.21,0-9.54,1.73-12.14,5.2l-2.61,3.47-45.1,78.93c-5.2-13-7.8-26-7.8-37.3,0-27.75,9.54-52,29.49-72.85,19.94-20,44.23-29.49,72-29.49Zm-13.87,76.32L85,229l-7.8-8.68,56.37-98,2.6-3.47a20.68,20.68,0,0,1,12.15-4.34h99.74l3.46,7.81h-95.4a17.11,17.11,0,0,0-12.14,5.2l-2.6,2.6ZM170,136.21a15.61,15.61,0,0,1,13-6.07H254.1l1.74,8.68h-65c-5.2,0-9.54,1.73-12.14,5.2l-2.6,3.47L116.21,249.82l-9.54-5.2,61.58-105.8,1.74-2.61Zm86.75,10.4v9.54c0,27.75-9.53,51.17-29.48,71.12s-43.36,30.36-72,30.36L144,256.76l59-101.48,1.73-2.6a15.11,15.11,0,0,1,12.14-6.07Z"/></g></g></svg>